<svg width="64" height="64" viewBox="0 0 64 64" fill="none" xmlns="http://www.w3.org/2000/svg">
	<path d="M55.5099 19H52.6399C52.9263 18.1287 53.3666 17.3158 53.9399 16.6C54.5116 17.3674 55.0359 18.1688 55.5099 19ZM59 32C59 32.33 58.9899 32.67 58.9799 33H36C35.47 33.0016 34.9622 33.2128 34.5875 33.5875C34.2128 33.9623 34.0015 34.47 34 35C34.0039 35.5292 34.2159 36.0356 34.5901 36.4099C34.9643 36.7841 35.4707 36.9961 36 37H41.5C41.8978 37 42.2793 37.158 42.5606 37.4393C42.8419 37.7206 43 38.1022 43 38.5C43 38.8978 43.158 39.2793 43.4393 39.5607C43.7206 39.842 44.1021 40 44.5 40H45.5C46.4282 40 47.3184 40.3687 47.9748 41.0251C48.6312 41.6815 49 42.5717 49 43.5C49.0045 44.4182 49.3679 45.2983 50.0125 45.9523C50.6571 46.6063 51.5319 46.9823 52.45 47C51.5194 48.0116 51.002 49.3354 51 50.71V50.76C47.6555 53.9721 43.512 56.2303 39 57.3V53.5C39 52.837 38.7366 52.2011 38.2677 51.7322C37.7989 51.2634 37.163 51 36.5 51H31.5C31.1713 51.001 30.8458 50.9371 30.542 50.8118C30.2382 50.6866 29.9622 50.5025 29.7298 50.2701C29.4975 50.0378 29.3134 49.7617 29.1881 49.458C29.0628 49.1542 28.9989 48.8286 29 48.5C29 47.837 28.7366 47.2011 28.2677 46.7322C27.7989 46.2634 27.163 46 26.5 46H16.99C16.9986 45.9539 17.002 45.9069 17 45.86C16.9995 44.7492 16.7609 43.6513 16.3003 42.6405C15.8398 41.6296 15.1679 40.7293 14.33 40H22C22.5292 39.9961 23.0356 39.7841 23.4098 39.4099C23.7841 39.0356 23.996 38.5292 24 38C23.9984 37.47 23.7871 36.9623 23.4124 36.5875C23.0377 36.2128 22.5299 36.0016 22 36H20C19.2043 36 18.4412 35.6839 17.8786 35.1213C17.316 34.5587 17 33.7956 17 33C17 32.2043 17.316 31.4413 17.8786 30.8787C18.4412 30.3161 19.2043 30 20 30H27C27.5292 29.9961 28.0356 29.7841 28.4098 29.4099C28.7841 29.0356 28.996 28.5292 29 28C28.9984 27.47 28.7871 26.9623 28.4124 26.5875C28.0377 26.2128 27.5299 26.0016 27 26H7.69995C8.02102 24.6405 8.45245 23.3094 8.98995 22.02C9.12845 22.4291 9.19938 22.8581 9.19995 23.29C9.19995 23.7674 9.38959 24.2252 9.72716 24.5628C10.0647 24.9004 10.5226 25.09 11 25.09C11.4773 25.09 11.9352 24.9004 12.2727 24.5628C12.6103 24.2252 12.8 23.7674 12.8 23.29C12.8 21.03 14.63 19.76 15.87 18H23C23.5299 17.9984 24.0377 17.7872 24.4124 17.4125C24.7871 17.0377 24.9984 16.5299 25 16C25.0039 15.4708 25.2159 14.9643 25.5901 14.5901C25.9643 14.2159 26.4707 14.0039 27 14H31C31.5299 13.9984 32.0377 13.7872 32.4124 13.4125C32.7871 13.0377 32.9984 12.5299 33 12C32.996 11.4708 32.784 10.9643 32.4098 10.5901C32.0356 10.2159 31.5292 10.0039 31 9.99999H19.16C22.5424 7.86796 26.3715 6.54576 30.3488 6.1364C34.326 5.72705 38.3442 6.24162 42.09 7.63999C42.0298 8.04387 41.9997 8.45166 42 8.85999C42 13.67 46.28 15.47 47.36 19H38C37.47 19.0016 36.9622 19.2128 36.5875 19.5875C36.2128 19.9623 36.0015 20.47 36 21C36.0039 21.5292 36.2159 22.0356 36.5901 22.4099C36.9643 22.7841 37.4707 22.9961 38 23H45C45.7956 23 46.5587 23.3161 47.1213 23.8787C47.6839 24.4413 48 25.2043 48 26C48 26.7956 48.316 27.5587 48.8786 28.1213C49.4412 28.6839 50.2043 29 51 29H58.83C58.9422 29.9961 58.999 30.9976 59 32Z" fill="#2BD2E5" />
	<path d="M36 33H58.98C58.8213 37.3045 57.5908 41.5013 55.4 45.21C54.2622 45.504 53.2362 46.1266 52.45 47C51.5319 46.9823 50.6572 46.6063 50.0125 45.9523C49.3679 45.2984 49.0045 44.4183 49 43.5C49 42.5718 48.6313 41.6815 47.9749 41.0252C47.3185 40.3688 46.4283 40 45.5 40H44.5C44.1022 40 43.7207 39.842 43.4394 39.5607C43.158 39.2794 43 38.8979 43 38.5C43 38.1022 42.842 37.7207 42.5607 37.4394C42.2794 37.1581 41.8978 37 41.5 37H36C35.4708 36.9961 34.9644 36.7841 34.5901 36.4099C34.2159 36.0357 34.0039 35.5292 34 35C34.0016 34.4701 34.2128 33.9623 34.5876 33.5876C34.9623 33.2128 35.4701 33.0016 36 33ZM58.83 29H51C50.2044 29 49.4413 28.684 48.8787 28.1213C48.3161 27.5587 48 26.7957 48 26C48 25.2044 47.6839 24.4413 47.1213 23.8787C46.5587 23.3161 45.7957 23 45 23H38C37.4708 22.9961 36.9644 22.7841 36.5901 22.4099C36.2159 22.0357 36.0039 21.5292 36 21C36.0016 20.4701 36.2128 19.9623 36.5876 19.5876C36.9623 19.2128 37.4701 19.0016 38 19H47.36C47.5195 19.5321 47.6003 20.0846 47.6 20.64C47.6 21.2765 47.8529 21.887 48.303 22.3371C48.753 22.7872 49.3635 23.04 50 23.04C50.6365 23.04 51.247 22.7872 51.6971 22.3371C52.1472 21.887 52.4 21.2765 52.4 20.64C52.3997 20.0846 52.4805 19.5321 52.64 19H55.51C57.2951 22.0685 58.4255 25.4733 58.83 29ZM39 53.5V57.3C34.8017 58.2939 30.4222 58.2285 26.2555 57.1096C22.0888 55.9906 18.2656 53.8534 15.13 50.89C16.2829 49.516 16.9383 47.793 16.99 46H26.5C27.1631 46 27.7989 46.2634 28.2678 46.7323C28.7366 47.2011 29 47.837 29 48.5C28.999 48.8286 29.0629 49.1542 29.1882 49.458C29.3134 49.7618 29.4975 50.0378 29.7299 50.2701C29.9622 50.5025 30.2383 50.6866 30.5421 50.8119C30.8458 50.9371 31.1714 51.0011 31.5 51H36.5C37.1631 51 37.7989 51.2634 38.2678 51.7323C38.7366 52.2011 39 52.837 39 53.5ZM32.41 10.59C32.598 10.7734 32.7472 10.9927 32.8485 11.235C32.9499 11.4772 33.0014 11.7374 33 12C32.9984 12.53 32.7872 13.0378 32.4125 13.4125C32.0377 13.7872 31.53 13.9984 31 14H27C26.4708 14.004 25.9644 14.2159 25.5901 14.5902C25.2159 14.9644 25.0039 15.4708 25 16C24.9984 16.53 24.7872 17.0378 24.4125 17.4125C24.0378 17.7872 23.53 17.9984 23 18H15.87C16.5172 17.1642 16.9049 16.1567 16.9849 15.1026C17.0649 14.0484 16.8337 12.994 16.32 12.07C17.2129 11.3091 18.1623 10.6171 19.16 10H31C31.2626 9.99863 31.5228 10.0502 31.7651 10.1515C32.0073 10.2529 32.2267 10.402 32.41 10.59ZM27 26C27.53 26.0016 28.0378 26.2128 28.4125 26.5876C28.7872 26.9623 28.9984 27.4701 29 28C28.9961 28.5292 28.7841 29.0357 28.4099 29.4099C28.0357 29.7841 27.5292 29.9961 27 30H20C19.2044 30 18.4413 30.3161 17.8787 30.8787C17.3161 31.4413 17 32.2044 17 33C17 33.7957 17.3161 34.5587 17.8787 35.1213C18.4413 35.684 19.2044 36 20 36H22C22.53 36.0016 23.0378 36.2128 23.4125 36.5876C23.7872 36.9623 23.9984 37.4701 24 38C23.9961 38.5292 23.7841 39.0357 23.4099 39.4099C23.0357 39.7841 22.5292 39.9961 22 40H14.33C12.8562 38.7066 10.9609 37.9954 9.00002 38C8.57463 37.9977 8.1498 38.0312 7.73002 38.1C6.76691 34.1254 6.75663 29.9794 7.70002 26H27Z" fill="#3FDB7B" />
	<path d="M19.514 40H14.33C15.1679 40.7293 15.8398 41.6297 16.3003 42.6405C16.7609 43.6514 16.9995 44.7492 17 45.86C17.002 45.9069 16.9986 45.9539 16.99 46H26.15C23.6094 44.3965 21.3644 42.3668 19.514 40ZM14 24C14.0006 22.6216 14.1099 21.2453 14.327 19.884C13.4151 20.792 12.8712 22.0052 12.8 23.29C12.8 23.7674 12.6103 24.2253 12.2727 24.5628C11.9352 24.9004 11.4773 25.09 11 25.09C10.5226 25.09 10.0647 24.9004 9.72716 24.5628C9.38959 24.2253 9.19995 23.7674 9.19995 23.29C9.19938 22.8581 9.12845 22.4292 8.98995 22.02C8.45245 23.3094 8.02102 24.6405 7.69995 26H14.084C14.0307 25.3347 14.0027 24.6675 14 24ZM40 50C36.1104 50.0056 32.2697 49.1347 28.763 47.452C28.9176 47.7799 28.9985 48.1376 29 48.5C28.9989 48.8286 29.0628 49.1542 29.1881 49.458C29.3134 49.7618 29.4975 50.0378 29.7298 50.2702C29.9622 50.5025 30.2382 50.6866 30.542 50.8119C30.8458 50.9371 31.1713 51.0011 31.5 51H36.5C37.163 51 37.7989 51.2634 38.2677 51.7323C38.7366 52.2011 39 52.837 39 53.5V57.3C43.512 56.2303 47.6555 53.9721 51 50.76V50.71C51.002 49.3355 51.5194 48.0117 52.45 47C52.358 47 52.2719 46.978 52.1819 46.97C48.4316 48.9647 44.2478 50.0053 40 50Z" fill="#1EBACC" />
	<path d="M36.5 51H31.5C31.1714 51.0011 30.8458 50.9371 30.542 50.8119C30.2383 50.6866 29.9622 50.5025 29.7299 50.2701C29.4975 50.0378 29.3134 49.7617 29.1882 49.458C29.0629 49.1542 28.9989 48.8286 29 48.5C28.9985 48.1375 28.9176 47.7798 28.763 47.452C27.8648 47.0186 26.9924 46.5338 26.15 46H16.99C16.9383 47.7929 16.2829 49.5159 15.13 50.89C18.2656 53.8533 22.0888 55.9906 26.2555 57.1095C30.4222 58.2284 34.8017 58.2939 39 57.3V53.5C39 52.837 38.7366 52.2011 38.2678 51.7322C37.7989 51.2634 37.163 51 36.5 51Z" fill="#33C46A" />
	<path d="M16.3199 12.07C16.4237 12.2616 16.5165 12.4589 16.5979 12.661C16.8269 12.19 17.0739 11.729 17.3299 11.274C16.9879 11.533 16.6459 11.792 16.3199 12.07Z" fill="#3FDB7B" />
	<path d="M14.084 26H7.70002C6.75663 29.9794 6.76691 34.1254 7.73002 38.1C8.1498 38.0312 8.57463 37.9977 9.00002 38C10.9609 37.9954 12.8562 38.7066 14.33 40H19.514C16.3594 35.973 14.4697 31.101 14.084 26Z" fill="#33C46A" />
	<path d="M51 50.71C51.002 49.3354 51.5194 48.0116 52.45 47C51.9941 46.9952 51.5436 46.8996 51.125 46.719C50.4947 47.0426 49.9274 47.4764 49.45 48C48.5194 49.0116 48.002 50.3354 48 51.71V51.76C48.0036 52.2115 48.0661 52.6607 48.186 53.096C49.1779 52.3846 50.1182 51.604 51 50.76V50.71Z" fill="#2BD2E5" />
	<path d="M40 10.86C40 14.68 42.7 16.603 44.347 19H47.36C46.28 15.47 42 13.67 42 8.86001C41.9998 8.45168 42.0298 8.04389 42.09 7.64001C41.699 7.49401 41.29 7.37901 40.89 7.25201C40.4945 7.99889 40.2242 8.80561 40.09 9.64001C40.0298 10.0439 39.9998 10.4517 40 10.86ZM45.644 23.073C45.7454 23.585 46.0126 24.0492 46.4043 24.3941C46.796 24.739 47.2903 24.9453 47.811 24.981C47.6406 24.5057 47.3524 24.0814 46.9734 23.7477C46.5945 23.414 46.1371 23.1819 45.644 23.073Z" fill="#1EBACC" />
	<path d="M51.125 46.719C51.5436 46.8997 51.9941 46.9952 52.45 47C52.789 46.6275 53.1745 46.3002 53.597 46.026C52.731 46.066 51.8856 46.303 51.125 46.719Z" fill="#3FDB7B" />
	<path d="M47.6 20.64C47.6003 20.0846 47.5195 19.5321 47.36 19H44.347C44.7863 19.6101 45.1281 20.2848 45.36 21C45.5195 21.5321 45.6003 22.0846 45.6 22.64C45.6014 22.7854 45.6161 22.9303 45.644 23.073C46.137 23.1819 46.5945 23.414 46.9734 23.7477C47.3524 24.0814 47.6406 24.5057 47.811 24.981C47.875 24.981 47.935 25 48 25C48.5737 25.0031 49.1292 24.7988 49.5642 24.4246C49.9992 24.0505 50.2843 23.5317 50.367 22.964C50.2457 22.9851 50.123 22.9972 50 23C49.6874 23.0026 49.3774 22.9437 49.0877 22.8265C48.7979 22.7093 48.5341 22.5362 48.3112 22.3171C48.0883 22.0979 47.9108 21.837 47.7888 21.5493C47.6668 21.2615 47.6026 20.9525 47.6 20.64Z" fill="#33C46A" />
	<path d="M9.19995 23.29C9.19938 22.8581 9.12845 22.4291 8.98995 22.02C8.45245 23.3094 8.02102 24.6405 7.69995 26H10.631C10.7409 25.7794 10.7987 25.5365 10.8 25.29C10.8 25.182 10.823 25.09 10.831 24.984C10.3971 24.9551 9.9896 24.7655 9.68802 24.4523C9.38643 24.139 9.21242 23.7247 9.19995 23.29Z" fill="#2BD2E5" />
	<path d="M8.99995 27C9.3381 27.0024 9.67017 26.91 9.95846 26.7333C10.2468 26.5565 10.4797 26.3025 10.6309 26H7.69995C7.66995 26.123 7.64995 26.25 7.62195 26.375C7.79371 26.5715 8.00556 26.729 8.24325 26.8368C8.48093 26.9446 8.73895 27.0002 8.99995 27Z" fill="#3FDB7B" />
	<path d="M57 45C58.5522 44.9637 60.0555 45.5445 61.1802 46.6148C62.305 47.6852 62.9594 49.1579 63 50.71C63 54.71 58.8 55.86 58.8 59.29C58.8 59.7674 58.6104 60.2252 58.2728 60.5628C57.9352 60.9004 57.4774 61.09 57 61.09C56.5226 61.09 56.0648 60.9004 55.7272 60.5628C55.3896 60.2252 55.2 59.7674 55.2 59.29C55.2 55.87 51.04 54.72 51 50.76V50.71C51.002 49.3355 51.5194 48.0117 52.45 47C53.2362 46.1266 54.2622 45.504 55.4 45.21C55.9216 45.0689 56.4597 44.9983 57 45ZM59 51C59 50.6045 58.8827 50.2178 58.6629 49.8889C58.4432 49.56 58.1308 49.3036 57.7654 49.1523C57.3999 49.0009 56.9978 48.9613 56.6098 49.0384C56.2219 49.1156 55.8655 49.3061 55.5858 49.5858C55.3061 49.8655 55.1156 50.2219 55.0384 50.6098C54.9613 50.9978 55.0009 51.3999 55.1522 51.7654C55.3036 52.1308 55.56 52.4432 55.8889 52.663C56.2178 52.8827 56.6044 53 57 53C57.5299 52.9984 58.0377 52.7872 58.4125 52.4125C58.7872 52.0377 58.9984 51.53 59 51Z" fill="#E5277F" />
	<path d="M57 53C58.1046 53 59 52.1046 59 51C59 49.8954 58.1046 49 57 49C55.8954 49 55 49.8954 55 51C55 52.1046 55.8954 53 57 53Z" fill="#EBBF1D" />
	<path d="M50 1.00001C51.0414 0.990773 52.0744 1.18676 53.0401 1.57677C54.0057 1.96678 54.8851 2.54318 55.628 3.27306C56.3708 4.00294 56.9627 4.87199 57.3697 5.83061C57.7767 6.78922 57.9908 7.81861 58 8.86001C58 12.46 55.6 14.38 53.94 16.6C53.3666 17.3158 52.9263 18.1287 52.64 19C52.4805 19.5321 52.3997 20.0846 52.4 20.64C52.4 21.2765 52.1471 21.887 51.6971 22.3371C51.247 22.7872 50.6365 23.04 50 23.04C49.3635 23.04 48.753 22.7872 48.3029 22.3371C47.8529 21.887 47.6 21.2765 47.6 20.64C47.6003 20.0846 47.5195 19.5321 47.36 19C46.28 15.47 42 13.67 42 8.86001C41.9998 8.45167 42.0298 8.04388 42.09 7.64001C42.4051 5.77416 43.3741 4.0814 44.8234 2.86478C46.2727 1.64816 48.1078 0.987119 50 1.00001ZM53 9.00001C53 8.40666 52.8241 7.82664 52.4944 7.3333C52.1648 6.83995 51.6962 6.45543 51.1481 6.22837C50.5999 6.00131 49.9967 5.9419 49.4147 6.05765C48.8328 6.17341 48.2982 6.45913 47.8787 6.87869C47.4591 7.29824 47.1734 7.83279 47.0576 8.41474C46.9419 8.99668 47.0013 9.59988 47.2284 10.1481C47.4554 10.6962 47.8399 11.1648 48.3333 11.4944C48.8266 11.8241 49.4067 12 50 12C50.7957 12 51.5587 11.6839 52.1213 11.1213C52.6839 10.5587 53 9.79566 53 9.00001Z" fill="#E5277F" />
	<path d="M50 12C51.6569 12 53 10.6569 53 9C53 7.34315 51.6569 6 50 6C48.3431 6 47 7.34315 47 9C47 10.6569 48.3431 12 50 12Z" fill="#EBBF1D" />
	<path d="M17 45.86C17.002 45.9069 16.9987 45.9539 16.99 46C16.9383 47.7929 16.2829 49.5159 15.13 50.89C13.51 53.04 11.4 54.75 11.4 57.64C11.4 58.2765 11.1471 58.887 10.6971 59.3371C10.247 59.7872 9.63652 60.04 9 60.04C8.36348 60.04 7.75303 59.7872 7.30294 59.3371C6.85286 58.887 6.6 58.2765 6.6 57.64C6.6 52.93 1 51.36 1 45.86C1.01261 43.9767 1.69767 42.1598 2.93166 40.7369C4.16564 39.3141 5.86736 38.3789 7.73 38.1C8.14979 38.0312 8.57461 37.9977 9 38C10.9609 37.9954 12.8561 38.7066 14.33 40C15.1679 40.7293 15.8398 41.6297 16.3004 42.6405C16.761 43.6514 16.9995 44.7492 17 45.86ZM12 46C12 45.4067 11.8241 44.8267 11.4944 44.3333C11.1648 43.84 10.6962 43.4554 10.1481 43.2284C9.59987 43.0013 8.99667 42.9419 8.41473 43.0577C7.83279 43.1734 7.29824 43.4591 6.87868 43.8787C6.45912 44.2983 6.1734 44.8328 6.05764 45.4147C5.94189 45.9967 6.0013 46.5999 6.22836 47.1481C6.45542 47.6962 6.83994 48.1648 7.33329 48.4944C7.82664 48.8241 8.40666 49 9 49C9.79565 49 10.5587 48.6839 11.1213 48.1213C11.6839 47.5587 12 46.7957 12 46ZM16.32 12.07C16.8337 12.994 17.0649 14.0484 16.9849 15.1025C16.9049 16.1567 16.5172 17.1641 15.87 18C14.63 19.76 12.8 21.03 12.8 23.29C12.8 23.7674 12.6104 24.2252 12.2728 24.5628C11.9352 24.9004 11.4774 25.09 11 25.09C10.5226 25.09 10.0648 24.9004 9.72721 24.5628C9.38964 24.2252 9.2 23.7674 9.2 23.29C9.19943 22.8581 9.1285 22.4291 8.99 22.02C8.15 19.5 5 18.17 5 14.71C5.04061 13.1579 5.69502 11.6852 6.81976 10.6148C7.94449 9.54446 9.44777 8.96375 11 9.00002C12.08 8.99036 13.143 9.26997 14.0785 9.80981C15.014 10.3497 15.7879 11.1301 16.32 12.07ZM13 15C13 14.6045 12.8827 14.2178 12.6629 13.8889C12.4432 13.56 12.1308 13.3036 11.7654 13.1523C11.3999 13.0009 10.9978 12.9613 10.6098 13.0384C10.2219 13.1156 9.86549 13.3061 9.58579 13.5858C9.30608 13.8655 9.1156 14.2219 9.03843 14.6098C8.96126 14.9978 9.00087 15.3999 9.15224 15.7654C9.30362 16.1308 9.55996 16.4432 9.88886 16.663C10.2178 16.8827 10.6044 17 11 17C11.5299 16.9984 12.0377 16.7872 12.4125 16.4125C12.7872 16.0378 12.9984 15.53 13 15Z" fill="#E5277F" />
	<path d="M11 17C12.1046 17 13 16.1046 13 15C13 13.8954 12.1046 13 11 13C9.89543 13 9 13.8954 9 15C9 16.1046 9.89543 17 11 17Z" fill="#EBBF1D" />
	<path d="M9 49C10.6569 49 12 47.6569 12 46C12 44.3431 10.6569 43 9 43C7.34315 43 6 44.3431 6 46C6 47.6569 7.34315 49 9 49Z" fill="#EBBF1D" />
	<path d="M11 12C10.4067 12 9.82664 12.1759 9.33329 12.5056C8.83994 12.8352 8.45543 13.3038 8.22836 13.8519C8.0013 14.4001 7.94189 15.0033 8.05765 15.5853C8.1734 16.1672 8.45912 16.7018 8.87868 17.1213C9.29824 17.5409 9.83279 17.8266 10.4147 17.9424C10.9967 18.0581 11.5999 17.9987 12.1481 17.7716C12.6962 17.5446 13.1648 17.1601 13.4944 16.6667C13.8241 16.1734 14 15.5933 14 15C14 14.2044 13.6839 13.4413 13.1213 12.8787C12.5587 12.3161 11.7957 12 11 12ZM11 17C10.6044 17 10.2178 16.8827 9.88886 16.6629C9.55996 16.4432 9.30362 16.1308 9.15224 15.7654C9.00087 15.3999 8.96126 14.9978 9.03843 14.6098C9.1156 14.2219 9.30608 13.8655 9.58579 13.5858C9.86549 13.3061 10.2219 13.1156 10.6098 13.0384C10.9978 12.9613 11.3999 13.0009 11.7654 13.1522C12.1308 13.3036 12.4432 13.56 12.6629 13.8889C12.8827 14.2178 13 14.6044 13 15C12.9984 15.5299 12.7872 16.0377 12.4125 16.4125C12.0377 16.7872 11.5299 16.9984 11 17ZM57 48C56.4067 48 55.8266 48.1759 55.3333 48.5056C54.8399 48.8352 54.4554 49.3038 54.2284 49.852C54.0013 50.4001 53.9419 51.0033 54.0576 51.5853C54.1734 52.1672 54.4591 52.7018 54.8787 53.1213C55.2982 53.5409 55.8328 53.8266 56.4147 53.9424C56.9967 54.0581 57.5999 53.9987 58.148 53.7716C58.6962 53.5446 59.1648 53.1601 59.4944 52.6667C59.8241 52.1734 60 51.5933 60 51C60 50.2044 59.6839 49.4413 59.1213 48.8787C58.5587 48.3161 57.7956 48 57 48ZM57 53C56.6044 53 56.2178 52.8827 55.8889 52.6629C55.56 52.4432 55.3036 52.1308 55.1522 51.7654C55.0009 51.3999 54.9613 50.9978 55.0384 50.6098C55.1156 50.2219 55.3061 49.8655 55.5858 49.5858C55.8655 49.3061 56.2219 49.1156 56.6098 49.0384C56.9978 48.9613 57.3999 49.0009 57.7654 49.1522C58.1308 49.3036 58.4432 49.56 58.6629 49.8889C58.8827 50.2178 59 50.6044 59 51C58.9984 51.5299 58.7872 52.0377 58.4125 52.4125C58.0377 52.7872 57.5299 52.9984 57 53ZM9 42C8.20888 42 7.43552 42.2346 6.77772 42.6741C6.11992 43.1136 5.60723 43.7384 5.30448 44.4693C5.00173 45.2002 4.92252 46.0044 5.07686 46.7804C5.2312 47.5563 5.61216 48.269 6.17157 48.8284C6.73098 49.3878 7.44372 49.7688 8.21964 49.9231C8.99556 50.0775 9.79983 49.9983 10.5307 49.6955C11.2616 49.3928 11.8864 48.8801 12.3259 48.2223C12.7654 47.5645 13 46.7911 13 46C13 44.9391 12.5786 43.9217 11.8284 43.1716C11.0783 42.4214 10.0609 42 9 42ZM9 49C8.40666 49 7.82664 48.8241 7.33329 48.4944C6.83994 48.1648 6.45543 47.6962 6.22836 47.148C6.0013 46.5999 5.94189 45.9967 6.05765 45.4147C6.1734 44.8328 6.45912 44.2982 6.87868 43.8787C7.29824 43.4591 7.83279 43.1734 8.41473 43.0576C8.99667 42.9419 9.59987 43.0013 10.1481 43.2284C10.6962 43.4554 11.1648 43.8399 11.4944 44.3333C11.8241 44.8266 12 45.4067 12 46C12 46.7956 11.6839 47.5587 11.1213 48.1213C10.5587 48.6839 9.79565 49 9 49ZM50 5C49.2089 5 48.4355 5.2346 47.7777 5.67412C47.1199 6.11365 46.6072 6.73836 46.3045 7.46927C46.0017 8.20017 45.9225 9.00444 46.0769 9.78036C46.2312 10.5563 46.6122 11.269 47.1716 11.8284C47.731 12.3878 48.4437 12.7688 49.2196 12.9231C49.9956 13.0775 50.7998 12.9983 51.5307 12.6955C52.2616 12.3928 52.8864 11.8801 53.3259 11.2223C53.7654 10.5645 54 9.79113 54 9C54 7.93913 53.5786 6.92172 52.8284 6.17157C52.0783 5.42143 51.0609 5 50 5ZM50 12C49.4067 12 48.8266 11.8241 48.3333 11.4944C47.8399 11.1648 47.4554 10.6962 47.2284 10.1481C47.0013 9.59987 46.9419 8.99667 47.0576 8.41473C47.1734 7.83279 47.4591 7.29824 47.8787 6.87868C48.2982 6.45912 48.8328 6.1734 49.4147 6.05764C49.9967 5.94189 50.5999 6.0013 51.148 6.22836C51.6962 6.45542 52.1648 6.83994 52.4944 7.33329C52.8241 7.82664 53 8.40666 53 9C53 9.79565 52.6839 10.5587 52.1213 11.1213C51.5587 11.6839 50.7956 12 50 12Z" fill="#E5277F" />
</svg>
