<svg width="244" height="202" viewBox="0 0 244 202" fill="none" xmlns="http://www.w3.org/2000/svg">
	<path d="M2 7.61003V171.993C1.99995 172.849 2.27477 173.683 2.78403 174.372C3.29329 175.06 4.0101 175.567 4.829 175.818L82 199.451V26.701L7.171 3.78503C4.6 2.99803 2 4.92103 2 7.61003ZM236.829 197.868C239.4 198.655 242 196.732 242 194.043V29.66C242 28.8036 241.725 27.9698 241.216 27.2812C240.707 26.5927 239.99 26.0857 239.171 25.835C158.251 1.05303 163.733 2.56803 162 2.56803V175.135C162.933 175.135 158.12 173.763 236.829 197.868Z" fill="#A5B0FF" />
	<path d="M162 2.568C160.268 2.568 166.024 0.969 82 26.701V199.451C166.284 173.639 161.068 175.134 162 175.134V2.568Z" fill="#A5B0FF" />
	<path d="M26.871 22.368L16.586 19.218C16.2869 19.1263 15.9704 19.1061 15.6621 19.159C15.3537 19.2118 15.0621 19.3363 14.8106 19.5223C14.5591 19.7084 14.3547 19.9508 14.2139 20.2302C14.0732 20.5096 13.9999 20.8181 14 21.131V164.598C14 165.026 14.1374 165.443 14.392 165.787C14.6465 166.131 15.0047 166.385 15.414 166.51C79.509 186.139 66.512 182.12 82 187.035V38.701L26.871 22.368ZM217.129 178.65L227.414 181.78C228.7 182.171 230 181.216 230 179.88V37.329C230 35.232 232.474 36.612 174 18.819L162 15.035V162.421L217.129 178.65ZM150 18.427L162 15.035V162.368L82 187.035V38.701L150 18.427Z" fill="#31334F" />
	<path d="M63.667 48.376C63.6668 47.406 63.3584 46.4611 62.7863 45.6778C62.2142 44.8945 61.408 44.3133 60.484 44.018L51.527 41.159C50.5293 40.8406 49.4525 40.8742 48.4765 41.2542C47.5006 41.6342 46.6846 42.3377 46.165 43.247C44.46 46.23 44.244 46.851 43.244 47.601C43.016 47.772 30.752 56.979 30.52 57.127C21.641 62.777 19.668 63.316 19.668 66.544C19.668 74.985 19.397 75.676 20.596 77.258C26.792 85.437 27.336 87.033 30.275 87.033C32.984 87.033 35.77 86.592 37.287 89.479C40.656 95.889 41.288 98.449 44.765 98.449C45.7095 98.442 46.633 98.7278 47.4085 99.2669C48.184 99.8061 48.7735 100.572 49.096 101.46L49.906 103.688C50.2267 104.571 50.8114 105.333 51.5805 105.872C52.3496 106.41 53.266 106.699 54.205 106.699C57.185 106.699 60.819 107.264 62.025 103.532C64.416 96.134 66.683 99.69 69.78 97.754C72.343 96.152 74.236 94.479 76.976 95.88C80.333 97.597 81.591 98.582 83.8 97.871C90.87 95.599 93.551 95.415 94.116 91.934C95.634 82.576 95.558 82.642 95.85 81.905L99.7 72.167C100.138 71.0597 100.127 69.8254 99.6687 68.7263C99.2108 67.6272 98.3424 66.75 97.248 66.281C95.941 65.721 94.435 65.266 93.614 63.351L92.033 59.661C91.5735 58.5892 90.7219 57.7332 89.6525 57.2682C88.583 56.8032 87.3763 56.7641 86.279 57.159C84.46 57.814 82.336 58.946 80.034 57.241C74.712 53.299 73.59 51.906 70.981 52.465L69.201 52.846C68.5341 52.9897 67.8436 52.9824 67.18 52.8245C66.5163 52.6666 65.8964 52.3621 65.3658 51.9335C64.8351 51.5048 64.4071 50.9629 64.1131 50.3473C63.8192 49.7317 63.6668 49.0582 63.667 48.376ZM227.414 181.78C228.7 182.171 230 181.216 230 179.88V103.184C229.917 102.997 229.819 102.818 229.706 102.648C223.26 93.114 225.281 95.611 219.742 90.303C219.34 89.9176 218.855 89.6297 218.324 89.4613C217.793 89.2929 217.23 89.2486 216.679 89.3318C216.129 89.4149 215.604 89.6233 215.147 89.941C214.689 90.2586 214.31 90.677 214.04 91.164C212.707 93.562 210.845 93.037 202.98 93.037C201.652 93.037 202.59 92.71 186.618 101.955C182.876 104.121 179.909 98.454 176.571 98.454C173.389 98.454 170.497 97.946 169.518 100.975C167.354 107.67 168.308 106.137 164.564 109.441C163.869 110.054 162.967 110.379 162.042 110.35C161.116 110.321 160.236 109.94 159.581 109.285L154.649 104.353C154.257 103.961 153.779 103.663 153.254 103.483C152.729 103.303 152.17 103.246 151.619 103.315C151.069 103.385 150.541 103.579 150.077 103.883C149.613 104.188 149.225 104.594 148.942 105.072C145.209 111.372 147.174 108.922 140.998 114.789C140.499 115.263 140.145 115.868 139.976 116.535C139.807 117.201 139.831 117.902 140.044 118.556C144.475 132.165 143.176 130.339 147.601 132.306C150.541 133.612 149.687 136.591 149.377 139.802C149.329 140.301 149.178 140.784 148.935 141.221C148.691 141.659 148.36 142.042 147.962 142.346C147.564 142.65 147.107 142.868 146.621 142.987C146.134 143.107 145.629 143.124 145.135 143.039C137.516 141.725 141.496 141.485 127.738 145.005C124.579 145.813 124.999 149.06 124.999 150.315C124.999 156.366 113.666 153.046 113.666 159.097C113.666 170.946 112.282 168.406 123.149 173.384C124.894 174.183 122.655 174.504 161.999 162.373V162.426C225.483 181.109 214.104 177.729 227.414 181.78Z" fill="#3FDB7B" />
	<path d="M56.419 91.476C60.0674 91.476 63.025 88.5184 63.025 84.87C63.025 81.2216 60.0674 78.264 56.419 78.264C52.7706 78.264 49.813 81.2216 49.813 84.87C49.813 88.5184 52.7706 91.476 56.419 91.476Z" fill="#EBBF1D" />
	<path d="M58.263 99.919L56.97 95.089C56.458 93.175 59.354 92.399 59.868 94.314L61.161 99.144C61.674 101.056 58.778 101.837 58.263 99.919ZM86.24 135.988C86.3029 135.643 86.4848 135.331 86.7539 135.107C87.0231 134.882 87.3624 134.759 87.713 134.759C87.726 134.759 88.953 134.961 89.935 134.961C90.143 134.961 90.352 134.955 90.562 134.943L97.308 134.545C99.376 134.545 99.379 137.427 97.481 137.54C91.066 137.919 85.729 138.773 86.24 135.988ZM105.387 134.479C105.272 134.319 105.189 134.138 105.144 133.946C105.099 133.755 105.092 133.556 105.124 133.361C105.156 133.167 105.226 132.981 105.33 132.813C105.434 132.646 105.57 132.501 105.73 132.386C106.992 131.479 107.129 131.207 112.138 125.571C113.45 124.094 115.699 126.083 114.38 127.564C109.742 132.783 106.979 136.694 105.387 134.479ZM78.564 131.932C77.572 130.466 77.472 130.022 74.461 122.828C74.3221 122.464 74.3304 122.06 74.484 121.702C74.6376 121.343 74.9246 121.059 75.2842 120.909C75.6438 120.758 76.0478 120.753 76.4107 120.896C76.7737 121.038 77.0671 121.315 77.229 121.67C80.288 128.978 80.277 129.112 81.049 130.252C82.155 131.883 79.68 133.579 78.564 131.932ZM157.494 121.906C157.532 121.511 157.723 121.146 158.027 120.89C158.331 120.635 158.724 120.509 159.12 120.54C162.357 120.819 161.715 120.821 168.241 119.42C170.209 119.001 170.783 121.942 168.87 122.354C165.545 123.068 157.206 125.264 157.494 121.906ZM139.528 121.866C137.565 121.696 137.802 118.723 139.784 118.877L149.451 119.709C151.338 119.873 151.22 122.704 149.326 122.704C149.219 122.703 139.634 121.875 139.528 121.866ZM119.845 118.819C123.571 117.2 126.142 117.703 130.118 118.045C132.075 118.215 131.852 121.209 129.862 121.034C126.322 120.729 124.117 120.233 121.04 121.57C119.219 122.36 118.035 119.603 119.845 118.819ZM187.281 120.593C182.753 119.597 182.651 119.4 178.357 120.32C178.253 120.343 178.147 120.354 178.04 120.354C176.261 120.354 175.981 117.764 177.728 117.387C182.624 116.339 183.257 116.637 187.924 117.664C189.839 118.084 189.233 121.032 187.281 120.593ZM69.479 115.787C68.9458 115.443 68.3832 115.147 67.798 114.902C64.837 113.663 59.286 109.097 61.93 107.445C64.182 106.043 63.832 109.992 68.954 112.134C70.636 112.838 72.545 113.802 71.552 115.34C71.3363 115.674 70.9967 115.909 70.608 115.993C70.2193 116.076 69.8132 116.003 69.479 115.787Z" fill="#E0EBFC" />
	<path d="M214.241 113.217C213.866 112.523 213.23 112.006 212.475 111.781C211.719 111.555 210.904 111.639 210.21 112.014L200.97 117.005L195.979 107.765C195.592 107.094 194.958 106.601 194.213 106.39C193.468 106.179 192.669 106.267 191.988 106.635C191.306 107.003 190.795 107.622 190.563 108.361C190.331 109.1 190.396 109.9 190.744 110.592L195.735 119.832L186.495 124.823C185.815 125.205 185.312 125.84 185.095 126.589C184.879 127.339 184.965 128.144 185.336 128.83C185.707 129.517 186.333 130.03 187.078 130.259C187.824 130.489 188.63 130.416 189.323 130.057L198.563 125.066L203.554 134.306C203.941 134.977 204.575 135.47 205.32 135.681C206.065 135.892 206.863 135.804 207.545 135.436C208.226 135.068 208.738 134.449 208.97 133.71C209.202 132.971 209.137 132.171 208.789 131.479L203.798 122.239L213.038 117.248C213.732 116.873 214.249 116.238 214.474 115.482C214.7 114.726 214.616 113.911 214.241 113.217Z" fill="#E5277F" />
	<path d="M82 201.452C81.804 201.452 81.606 201.423 81.415 201.364L4.24304 177.73C3.01235 177.358 1.9346 176.599 1.17011 175.565C0.405625 174.532 -0.0047474 173.279 4.14408e-05 171.993V7.61C4.14408e-05 5.687 0.887041 3.92899 2.43304 2.78599C3.1854 2.22398 4.06022 1.84823 4.98582 1.68953C5.91141 1.53083 6.86143 1.59371 7.75804 1.87299L82.585 24.79C82.9945 24.9152 83.353 25.1686 83.6077 25.5128C83.8624 25.857 83.9999 26.2738 84 26.702V199.452C84 199.982 83.7893 200.491 83.4143 200.866C83.0392 201.241 82.5305 201.452 82 201.452ZM5.99404 5.608C5.57304 5.608 5.16104 5.74199 4.81104 6.00199C4.55837 6.18682 4.35312 6.42893 4.21214 6.70845C4.07116 6.98797 3.99847 7.29694 4.00004 7.61V171.993C3.99834 172.422 4.13517 172.84 4.39013 173.184C4.6451 173.529 5.00458 173.782 5.41504 173.906L80 196.748V28.181L6.58604 5.69699C6.39412 5.63856 6.19466 5.60858 5.99404 5.608ZM238.018 200.048C237.416 200.047 236.818 199.956 236.243 199.779C215.163 193.323 200.075 188.695 189.262 185.378C168.732 179.081 163.154 177.37 162.133 177.131C161.86 177.149 161.586 177.111 161.328 177.019C161.07 176.926 160.834 176.782 160.634 176.595C160.434 176.408 160.275 176.182 160.166 175.93C160.057 175.679 160.001 175.408 160.001 175.134V2.568C160.001 2.03756 160.212 1.52885 160.587 1.15378C160.962 0.778708 161.471 0.567996 162.001 0.567996L162.115 0.562995C163.333 0.478995 163.329 0.479995 195.233 10.271C205.983 13.57 220.398 17.994 239.758 23.923C240.989 24.2949 242.066 25.0542 242.831 26.0878C243.595 27.1215 244.006 28.3743 244.001 29.66V194.043C244.005 194.982 243.787 195.909 243.364 196.747C242.941 197.586 242.326 198.312 241.568 198.867C240.543 199.632 239.298 200.047 238.018 200.048ZM164 173.53C166.671 174.265 173.202 176.269 190.434 181.555C201.247 184.871 216.335 189.5 237.414 195.955C237.713 196.047 238.029 196.068 238.337 196.015C238.646 195.962 238.937 195.838 239.188 195.651C239.441 195.466 239.646 195.224 239.787 194.945C239.928 194.665 240.001 194.356 239.999 194.043V29.66C240.001 29.2312 239.864 28.8134 239.609 28.4687C239.354 28.124 238.995 27.8709 238.584 27.747C219.223 21.818 204.808 17.394 194.057 14.095C175.002 8.247 167.042 5.80399 163.998 4.94599V173.53H164Z" fill="#31334F" />
	<path d="M82 201.452C81.4696 201.452 80.9609 201.241 80.5858 200.866C80.2107 200.491 80 199.982 80 199.452V26.702C80.0001 26.2738 80.1376 25.857 80.3924 25.5128C80.6471 25.1686 81.0055 24.9153 81.415 24.79C96.8273 20.0692 112.238 15.3442 127.648 10.615C160.692 0.474016 160.691 0.469013 161.898 0.564013L162 0.568015C162.53 0.568015 163.039 0.778727 163.414 1.1538C163.789 1.52887 164 2.03758 164 2.56801V175.134C164 175.408 163.944 175.679 163.835 175.93C163.727 176.181 163.567 176.407 163.368 176.595C163.168 176.782 162.932 176.926 162.674 177.018C162.416 177.111 162.142 177.149 161.869 177.131C160.784 177.389 154.795 179.226 132.867 185.952C121.297 189.501 105.148 194.453 82.586 201.363C82.394 201.423 82.196 201.452 82 201.452ZM84 28.181V196.748C105.216 190.25 120.571 185.54 131.694 182.129C150.255 176.437 157.202 174.306 160 173.536V4.94801C156.887 5.82501 148.657 8.35101 128.821 14.438C113.882 19.0234 98.9417 23.6044 84 28.181Z" fill="#31334F" />
	<path d="M82 189.035C81.797 189.035 81.593 189.004 81.395 188.941L76.47 187.375C69.859 185.269 69.859 185.269 43.636 177.242L14.829 168.422C14.0085 168.174 13.2898 167.668 12.7801 166.979C12.2704 166.29 11.9968 165.454 12 164.597V21.131C12 19.849 12.591 18.677 13.622 17.915C14.1234 17.5404 14.7065 17.29 15.3234 17.1843C15.9403 17.0786 16.5735 17.1207 17.171 17.307L27.449 20.454L82.569 36.785C82.9823 36.9077 83.3449 37.1606 83.6027 37.506C83.8606 37.8514 84 38.271 84 38.702V187.035C84 187.565 83.7893 188.074 83.4142 188.449C83.0392 188.824 82.5305 189.035 82 189.035ZM16 21.13V164.597L44.807 173.417C71.051 181.45 71.051 181.45 77.684 183.563L80 184.3V40.195L26.303 24.286L26.286 24.281L16 21.13ZM228.012 183.87C227.612 183.87 227.214 183.81 226.832 183.693L216.553 180.565L161.435 164.339C161.021 164.217 160.657 163.965 160.398 163.619C160.14 163.273 160 162.853 160 162.421V15.035C160 14.398 160.304 13.799 160.817 13.422C161.07 13.2359 161.364 13.1123 161.674 13.0612C161.984 13.0101 162.302 13.033 162.601 13.128L174.601 16.912C188.175 21.042 198.474 24.142 206.275 26.49C218.481 30.164 224.608 32.008 227.694 33.111C230.457 34.098 232.126 34.865 232.005 37.191L232 37.329V179.879C232 181.153 231.412 182.319 230.386 183.079C229.701 183.592 228.868 183.869 228.012 183.87ZM164 160.925L217.694 176.732C217.7 176.733 217.706 176.735 217.711 176.737L227.997 179.867L228 37.519C226.187 36.661 219.467 34.638 205.123 30.321C197.318 27.972 187.016 24.871 173.418 20.733L164 17.762V160.925Z" fill="#31334F" />
	<path d="M82 189.035C81.4697 189.034 80.9612 188.824 80.586 188.449C80.2109 188.074 79.9998 187.565 79.999 187.035V38.702C79.999 37.818 80.58 37.038 81.428 36.785L149.428 16.51L149.455 16.502L161.455 13.11C161.752 13.0261 162.065 13.0122 162.369 13.0695C162.673 13.1268 162.959 13.2537 163.205 13.4402C163.452 13.6267 163.651 13.8678 163.789 14.1445C163.926 14.4212 163.998 14.726 163.998 15.035V162.368C163.998 162.795 163.861 163.212 163.607 163.556C163.353 163.9 162.996 164.153 162.587 164.279L82.587 188.946C82.3969 189.005 82.199 189.035 82 189.035ZM84 40.192V184.325L160 160.892V17.678L150.557 20.347L84 40.192Z" fill="#31334F" />
</svg>
