<svg width="493" height="493" viewBox="0 0 493 493" fill="none" xmlns="http://www.w3.org/2000/svg">
	<path fill-rule="evenodd" clip-rule="evenodd" d="M276.527 268.848L322.609 314.929L314.905 322.633L268.823 276.552L276.527 268.848Z" fill="#31334F" />
	<path fill-rule="evenodd" clip-rule="evenodd" d="M173.729 166.067L219.81 212.148L212.106 219.852L166.025 173.771L173.729 166.067Z" fill="#31334F" />
	<path fill-rule="evenodd" clip-rule="evenodd" d="M322.866 266.411L492.374 435.919L435.859 492.433L266.352 322.925L322.866 266.411Z" fill="#2BD2E5" />
	<path d="M322.948 266.31L351.266 294.533V294.725L322.948 322.948L322.756 323.044L294.533 294.725V294.533L322.756 266.31L322.852 266.214L322.948 266.31ZM350.978 294.629L322.852 266.598L294.821 294.629L322.852 322.66L350.978 294.629Z" fill="#31334F" />
	<path d="M379.201 322.852L351.17 294.821L323.044 322.852L351.17 350.978L379.201 322.852ZM351.266 294.533L379.489 322.756L379.585 322.852L379.489 322.948L351.266 351.266H350.978L322.66 322.948V322.756L350.978 294.533H351.266Z" fill="#31334F" />
	<path d="M379.489 322.756L407.711 351.074L407.807 351.266L379.489 379.489L379.393 379.585L379.297 379.489L351.074 351.266L350.978 351.17V350.978L379.297 322.66L379.489 322.756ZM407.423 351.17L379.393 323.044L351.362 351.17L379.393 379.201L407.423 351.17Z" fill="#31334F" />
	<path d="M435.646 379.393L407.615 351.362L379.585 379.393L407.615 407.423L435.646 379.393ZM407.807 351.074L436.03 379.297V379.489L407.711 407.711L407.519 407.807L379.297 379.489L379.201 379.393L407.615 350.978L407.807 351.074Z" fill="#31334F" />
	<path d="M436.03 379.297L464.252 407.519L464.348 407.615L464.252 407.711L436.03 436.03H435.838L407.519 407.711V407.519L435.838 379.297H436.03ZM463.868 407.615L435.934 379.585L407.807 407.615L435.934 435.646L463.868 407.615Z" fill="#31334F" />
	<path d="M492.187 435.934L464.156 407.807L436.126 435.934L464.156 463.964L492.187 435.934ZM464.252 407.519L492.475 435.838L492.571 436.03L464.252 464.252L464.156 464.348L464.06 464.252L435.838 436.03L435.646 435.934L435.838 435.838L464.06 407.519H464.252ZM266.502 322.852L294.629 350.978L322.66 322.852L294.629 294.821L266.598 322.852H266.502ZM294.533 351.266L266.31 322.948L266.214 322.756L294.533 294.533L294.629 294.437L294.725 294.533L322.948 322.756L323.044 322.852V322.948L294.725 351.266H294.533Z" fill="#31334F" />
	<path d="M322.756 379.489L294.533 351.266L294.437 351.17L294.533 351.074L322.756 322.756H322.948L351.266 351.074V351.266L322.948 379.489H322.756ZM294.917 351.17L322.852 379.201L350.978 351.17L322.852 323.044L294.917 351.17Z" fill="#31334F" />
	<path d="M323.14 379.393L351.17 407.423L379.201 379.393L351.17 351.362L323.14 379.393ZM350.978 407.711L322.756 379.489V379.297L351.074 351.074L351.266 350.978L379.489 379.297L379.585 379.393L379.489 379.489L351.266 407.711L351.17 407.807L350.978 407.711Z" fill="#31334F" />
	<path d="M379.297 436.03L350.978 407.615V407.423L379.297 379.201L379.393 379.105L407.711 407.423L407.807 407.519L379.489 435.934L379.297 436.03ZM351.362 407.615L379.393 435.646L407.423 407.615L379.393 379.585L351.362 407.615Z" fill="#31334F" />
	<path d="M379.585 435.934L407.615 463.964L435.646 435.934L407.615 407.807L379.585 435.934ZM407.519 464.252L379.297 436.03L379.201 435.934V435.838L407.519 407.519H407.711L436.03 435.838V436.03L407.711 464.252V464.348L407.519 464.252Z" fill="#31334F" />
	<path d="M435.838 492.475L407.519 464.253V464.061L435.838 435.838V435.646L436.03 435.838L464.252 464.061H464.348L464.252 464.253L436.03 492.475L435.934 492.571L435.838 492.475ZM407.807 464.157L435.934 492.187L463.964 464.157L435.934 436.126L407.807 464.157Z" fill="#31334F" />
	<path fill-rule="evenodd" clip-rule="evenodd" d="M57.3773 0.970459L226.885 170.478L170.371 226.992L0.862956 57.4848L57.3773 0.970459Z" fill="#2BD2E5" />
	<path d="M57.5209 0.787842L85.7435 29.1064H85.8395V29.2984L57.5209 57.521L57.4249 57.617L57.3289 57.521L29.1064 29.2984L29.0104 29.2024V29.1064L57.3289 0.787842H57.5209ZM85.4555 29.2024L57.4249 1.07583L29.3944 29.2024L57.4249 57.233L85.4555 29.2024Z" fill="#31334F" />
	<path d="M113.678 57.425L85.6476 29.3944L57.617 57.425L85.6476 85.4556L113.678 57.425ZM85.8396 29.1064L114.062 57.329V57.521L85.7436 85.7436V85.8396H85.5516L57.329 57.521L57.233 57.425V57.233L85.5516 29.0104L85.6476 28.9144H85.7436L85.8396 29.1064Z" fill="#31334F" />
	<path d="M114.062 57.233L142.285 85.5516V85.7436L114.062 114.062H113.774L85.5515 85.7436V85.5516L113.774 57.329L113.966 57.233H114.062ZM141.901 85.6476L113.966 57.617L85.8395 85.6476L113.966 113.678L141.901 85.6476Z" fill="#31334F" />
	<path d="M170.219 113.87L142.189 85.8395L114.158 113.966L142.189 141.997L170.219 113.87ZM142.285 85.5515L170.507 113.774L170.603 113.966L142.285 142.285H142.093L113.774 114.062V113.774L142.093 85.5515H142.285Z" fill="#31334F" />
	<path d="M170.507 113.87L198.73 142.093H198.922L198.73 142.285L170.507 170.507V170.603H170.315L142.093 142.285L141.997 142.189V142.093L170.315 113.774L170.507 113.87ZM198.442 142.189L170.411 114.158L142.381 142.189L170.411 170.219L198.442 142.189Z" fill="#31334F" />
	<path d="M226.76 170.507L198.634 142.381L170.603 170.411L198.634 198.442L226.76 170.507ZM198.73 142.093L227.048 170.315V170.507L198.73 198.73V198.922L198.538 198.73L170.315 170.507V170.315L198.538 142.093L198.634 141.997L198.73 142.093ZM1.07583 57.4249L29.2024 85.4555L57.233 57.4249L29.2024 29.3944L1.07583 57.4249ZM29.1064 85.7435L0.787842 57.5209V57.3289L29.1064 29.1064L29.2984 29.0104L57.521 57.3289H57.617L57.521 57.5209L29.2984 85.7435L29.2024 85.8395H29.1064V85.7435Z" fill="#31334F" />
	<path d="M57.233 114.062L29.1064 85.7436L29.0104 85.5516L57.3289 57.329L57.5209 57.233L85.7435 85.5516L85.8395 85.6476V85.7436L57.5209 114.062H57.233ZM29.3944 85.6476L57.4249 113.678L85.4555 85.6476L57.4249 57.617L29.3944 85.6476Z" fill="#31334F" />
	<path d="M57.617 113.87L85.6476 141.997L113.678 113.966L85.6476 85.8395L57.617 113.87ZM85.5516 142.285L57.329 114.062L57.233 113.966V113.774L85.5516 85.5515H85.7436L114.062 113.774V113.966L85.7436 142.285H85.5516Z" fill="#31334F" />
	<path d="M113.87 170.507L85.5515 142.285V142.093L113.774 113.774H113.966L142.285 142.093V142.285L114.062 170.507L113.966 170.603H113.774L113.87 170.507ZM85.8395 142.189L113.966 170.219L141.997 142.189L113.966 114.158L85.8395 142.189Z" fill="#31334F" />
	<path d="M114.158 170.507L142.189 198.442L170.219 170.411L142.189 142.381L114.158 170.507ZM141.997 198.73L113.87 170.507V170.315L142.189 142.093L142.381 141.997L170.603 170.315L170.699 170.411L142.381 198.73L142.285 198.922L142.189 198.73H141.997Z" fill="#31334F" />
	<path d="M170.315 227.048L142.093 198.73L141.997 198.538L170.315 170.315L170.411 170.219L170.507 170.315L198.73 198.538L198.922 198.634L198.73 198.73L170.507 227.048H170.315ZM142.381 198.634L170.411 226.761L198.442 198.634L170.411 170.603L142.381 198.634Z" fill="#31334F" />
	<path fill-rule="evenodd" clip-rule="evenodd" d="M280.71 155.052L338.307 212.649C343.587 217.929 344.547 225.608 340.419 229.736L205.354 364.705C201.226 368.833 193.546 367.969 188.266 362.69L130.669 305.092C125.39 299.717 124.43 292.037 128.557 287.909L263.623 152.94C267.75 148.812 275.43 149.772 280.71 155.052Z" fill="#3FDB7B" />
	<path fill-rule="evenodd" clip-rule="evenodd" d="M309.508 183.851L309.796 184.043L338.307 212.649C343.587 217.929 344.547 225.608 340.419 229.736L205.354 364.705C201.226 368.833 193.546 367.969 188.266 362.69L159.468 333.891L309.508 183.851Z" fill="#3FDB7B" />
	<path fill-rule="evenodd" clip-rule="evenodd" d="M280.71 155.052L309.508 183.851L159.468 333.891L130.669 305.092C125.39 299.717 124.43 292.037 128.557 287.909L263.623 152.94C267.75 148.812 275.43 149.772 280.71 155.052Z" fill="#3FDB7B" />
	<path d="M114.062 385.536L76.8161 422.687L70.5764 416.447L107.823 379.297L114.062 385.536Z" fill="#533184" />
	<path d="M80.0798 338.115V420.383H71.2483V338.115H80.0798Z" fill="#533184" />
	<path d="M156.876 414.911V423.743H74.5122V414.911H156.876Z" fill="#533184" />
	<path fill-rule="evenodd" clip-rule="evenodd" d="M43.7937 324.1C61.1237 311.801 82.2485 306.035 103.424 307.825C124.599 309.614 144.456 318.842 159.477 333.875C174.498 348.907 183.711 368.771 185.484 389.948C187.257 411.124 181.475 432.245 169.163 449.565L43.7937 324.1Z" fill="#31334F" />
	<path fill-rule="evenodd" clip-rule="evenodd" d="M159.468 333.795L159.66 334.083C191.05 365.569 194.218 414.527 169.259 449.565L106.575 386.976L106.479 386.88L159.468 333.795Z" fill="#31334F" />
	<path fill-rule="evenodd" clip-rule="evenodd" d="M43.7937 324.1C61.1139 311.793 82.2314 306.016 103.404 307.79C124.577 309.565 144.438 318.777 159.468 333.795L106.479 386.88L43.7937 324.1Z" fill="#31334F" />
	<path d="M67.9963 425.318C72.2112 429.533 79.0449 429.533 83.2598 425.318C87.4747 421.103 87.4747 414.269 83.2598 410.055C79.0449 405.84 72.2112 405.84 67.9963 410.055C63.7814 414.269 63.7814 421.103 67.9963 425.318Z" fill="#E5277F" />
</svg>
